<svg width="50" height="50" viewBox="0 0 50 50" fill="none" xmlns="http://www.w3.org/2000/svg">
<g clip-path="url(#clip0_68_192)">
<path d="M45 2.77778C46.2222 2.77778 47.2222 3.77778 47.2222 5V45C47.2222 46.2222 46.2222 47.2222 45 47.2222H5C3.77778 47.2222 2.77778 46.2222 2.77778 45V5C2.77778 3.77778 3.77778 2.77778 5 2.77778H45ZM45 0H5C2.25 0 0 2.25 0 5V45C0 47.75 2.25 50 5 50H45C47.75 50 50 47.75 50 45V5C50 2.25 47.75 0 45 0Z" fill="url(#paint0_linear_68_192)"/>
<path d="M38.4444 19.0278L36.8889 15.75C36.4722 14.9166 35.75 14.25 34.8611 13.9444L27.5833 11.5278C25.9167 10.9722 24.1111 10.9722 22.4444 11.5278L15.1667 13.9444C14.2778 14.25 13.5278 14.8889 13.1389 15.75L11.6111 18.8889C11.0555 19.8055 10.9444 20.9166 11.3333 21.9166C11.6944 22.8889 12.4444 23.6389 13.4167 24V31.3055C13.4167 33.8055 15 36 17.3611 36.8055L22.4166 38.5C23.25 38.7778 24.1111 38.9166 24.9722 38.9166C25.8333 38.9166 26.7222 38.7778 27.5278 38.5L32.5833 36.8055C34.9444 36.0278 36.5278 33.8055 36.5278 31.3333V24.0278C37.5 23.6944 38.2778 22.9444 38.6389 21.9444C39.0278 20.9166 38.9444 19.8333 38.4444 19.0278ZM23.1667 13.7222C24.3611 13.3333 25.6389 13.3333 26.8333 13.7222L31.75 15.3611L25 17.6111L18.25 15.3611L23.1667 13.7222ZM13.6389 19.9722L15.1667 16.75C15.2222 16.7778 23.3333 19.5 23.3333 19.5L21.4444 23.2778C21.1666 23.75 20.5833 23.9444 20.0833 23.7778L14.1944 21.8055C13.8611 21.6944 13.5833 21.4166 13.4444 21.0833C13.3055 20.75 13.4167 20.3889 13.6389 19.9722ZM18.0833 34.5833C16.6667 34.1111 15.6944 32.7778 15.7222 31.2778V24.75L19.3889 25.9722C20.9444 26.5 22.6111 25.8611 23.5 24.3889L23.8333 23.75V36.4722C23.6111 36.4166 23.3889 36.3611 23.1667 36.3055L18.0833 34.5833ZM31.8611 34.5833L26.8055 36.2778C26.5833 36.3611 26.3611 36.4166 26.1389 36.4444V23.7222L26.5 24.4722C27.1389 25.5555 28.2778 26.1666 29.4722 26.1666C29.8333 26.1666 30.2222 26.1111 30.5833 25.9722L34.25 24.75V31.2778C34.25 32.8055 33.2778 34.1111 31.8611 34.5833ZM36.5 21.1111C36.3889 21.4444 36.1111 21.6944 35.7778 21.8055L29.8611 23.7778C29.3611 23.9444 28.7778 23.75 28.5555 23.3611L26.6389 19.5278C26.6389 19.5278 34.75 16.8055 34.8055 16.7778L36.4167 20.1389C36.5833 20.4166 36.6111 20.7778 36.5 21.1111Z" fill="url(#paint1_linear_68_192)"/>
</g>
<defs>
<linearGradient id="paint0_linear_68_192" x1="6.75967" y1="5.67547" x2="42.0683" y2="43.0829" gradientUnits="userSpaceOnUse">
<stop stop-color="#1F8ADB"/>
<stop offset="1" stop-color="#F52A8C"/>
</linearGradient>
<linearGradient id="paint1_linear_68_192" x1="7.05618" y1="5.39556" x2="42.3648" y2="42.803" gradientUnits="userSpaceOnUse">
<stop stop-color="#1F8ADB"/>
<stop offset="1" stop-color="#F52A8C"/>
</linearGradient>
<clipPath id="clip0_68_192">
<rect width="50" height="50" fill="white"/>
</clipPath>
</defs>
</svg>
