<svg width="50" height="50" viewBox="0 0 50 50" fill="none" xmlns="http://www.w3.org/2000/svg">
<g clip-path="url(#clip0_68_188)">
<path d="M33.8333 11.1111H16.1667C12.6944 11.1111 9.86111 13.9444 9.86111 17.4166V32.5555C9.86111 36.0278 12.6944 38.8611 16.1667 38.8611H33.8333C37.3056 38.8611 40.1389 36.0278 40.1389 32.5555V17.4166C40.1389 13.9444 37.3333 11.1111 33.8333 11.1111ZM16.1667 13.6389H33.8333C35.3889 13.6389 36.7778 14.5833 37.3333 16.0278L27.6667 25.6944C26.1944 27.1666 23.7778 27.1666 22.3056 25.6944L12.6389 16.0278C13.2222 14.5833 14.6111 13.6389 16.1667 13.6389ZM33.8333 36.3611H16.1667C14.0833 36.3611 12.3889 34.6666 12.3889 32.5833V19.3055L20.5556 27.4722C23.0278 29.9444 27.0278 29.9444 29.4722 27.4722L37.6389 19.3055V32.5555C37.6389 34.6666 35.9167 36.3611 33.8333 36.3611Z" fill="url(#paint0_linear_68_188)"/>
<path d="M45 2.77778C46.2222 2.77778 47.2222 3.77778 47.2222 5V45C47.2222 46.2222 46.2222 47.2222 45 47.2222H5C3.77778 47.2222 2.77778 46.2222 2.77778 45V5C2.77778 3.77778 3.77778 2.77778 5 2.77778H45ZM45 0H5C2.25 0 0 2.25 0 5V45C0 47.75 2.25 50 5 50H45C47.75 50 50 47.75 50 45V5C50 2.25 47.75 0 45 0Z" fill="url(#paint1_linear_68_188)"/>
</g>
<defs>
<linearGradient id="paint0_linear_68_188" x1="4.8927" y1="4.79856" x2="44.4606" y2="44.5516" gradientUnits="userSpaceOnUse">
<stop stop-color="#1F8ADB"/>
<stop offset="1" stop-color="#F52A8C"/>
</linearGradient>
<linearGradient id="paint1_linear_68_188" x1="4.89269" y1="4.79858" x2="44.4606" y2="44.5517" gradientUnits="userSpaceOnUse">
<stop stop-color="#1F8ADB"/>
<stop offset="1" stop-color="#F52A8C"/>
</linearGradient>
<clipPath id="clip0_68_188">
<rect width="50" height="50" fill="white"/>
</clipPath>
</defs>
</svg>
