<svg width="50" height="50" viewBox="0 0 50 50" fill="none" xmlns="http://www.w3.org/2000/svg">
<g clip-path="url(#clip0_68_184)">
<path d="M45 2.77778C46.2222 2.77778 47.2222 3.77778 47.2222 5V45C47.2222 46.2222 46.2222 47.2222 45 47.2222H5C3.77778 47.2222 2.77778 46.2222 2.77778 45V5C2.77778 3.77778 3.77778 2.77778 5 2.77778H45ZM45 0H5C2.25 0 0 2.25 0 5V45C0 47.75 2.25 50 5 50H45C47.75 50 50 47.75 50 45V5C50 2.25 47.75 0 45 0Z" fill="url(#paint0_linear_68_184)"/>
<path d="M38.8889 23.8333C38.8889 22.0278 38.0278 20.3055 36.5833 19.2222V19.1944C36.5833 17 35.0556 15.1666 33 14.6944C32.5 12.6389 30.6667 11.1111 28.4722 11.1111C27.0833 11.1111 25.8333 11.7222 25 12.6944C24.1667 11.7222 22.9167 11.1111 21.5278 11.1111C19.3333 11.1111 17.5 12.6389 17 14.6944C14.9444 15.1666 13.4167 17 13.4167 19.1944V19.2222C11.9722 20.3055 11.1111 22 11.1111 23.8333C11.1111 24.8611 11.3889 25.8611 11.9167 26.7222C11.3889 27.6111 11.1111 28.6111 11.1111 29.6389C11.1111 31.5833 12.1111 33.3889 13.75 34.4722C14.5833 37.1111 17 38.9166 19.8056 38.9166C21.9722 38.9166 23.8611 37.8333 25.0278 36.1944C26.1944 37.8333 28.0833 38.9166 30.25 38.9166C33.0556 38.9166 35.4722 37.1111 36.3056 34.4722C37.9444 33.4166 38.9444 31.6111 38.9444 29.6389C38.9444 28.6111 38.6667 27.6111 38.1389 26.75C38.6111 25.8611 38.8889 24.8611 38.8889 23.8333ZM19.8056 36.5833C17.9167 36.5833 16.3056 35.2778 15.8611 33.4444L15.75 32.9444L15.2778 32.6944C14.1389 32.0833 13.4167 30.9166 13.4167 29.6389C13.4167 28.8611 13.6944 28.1111 14.1944 27.4722L14.7778 26.75L14.1944 26.0278C13.6944 25.3889 13.4167 24.6389 13.4167 23.8611C13.4167 22.6111 14.1111 21.4722 15.1944 20.8611L15.9167 20.4444C15.9167 20.4444 15.7222 19.3611 15.7222 19.2222C15.7222 17.9444 16.7778 16.9166 18.0278 16.9166H19.1944V15.75C19.1944 14.4722 20.25 13.4444 21.5 13.4444C22.75 13.4444 23.8056 14.5 23.8056 15.75V32.5278C23.8333 34.7778 22.0278 36.5833 19.8056 36.5833ZM35.7778 27.4722C36.2778 28.1111 36.5556 28.8611 36.5556 29.6389C36.5556 30.9166 35.8611 32.0833 34.6944 32.6944L34.2222 32.9444L34.1111 33.4444C33.6945 35.3055 32.0556 36.5833 30.1667 36.5833C27.9444 36.5833 26.1111 34.7778 26.1111 32.5278V15.75C26.1111 14.4722 27.1667 13.4444 28.4167 13.4444C29.6667 13.4444 30.7222 14.5 30.7222 15.75V16.9166H31.8889C33.1667 16.9166 34.1944 17.9722 34.1944 19.2222C34.1944 19.3611 34 20.4444 34 20.4444L34.7222 20.8611C35.8333 21.5 36.5 22.6389 36.5 23.8611C36.5 24.6389 36.2222 25.3889 35.7222 26.0278L35.1389 26.75L35.7778 27.4722Z" fill="url(#paint1_linear_68_184)"/>
</g>
<defs>
<linearGradient id="paint0_linear_68_184" x1="6.65114" y1="5.66714" x2="42.7395" y2="43.6908" gradientUnits="userSpaceOnUse">
<stop stop-color="#1F8ADB"/>
<stop offset="1" stop-color="#F52A8C"/>
</linearGradient>
<linearGradient id="paint1_linear_68_184" x1="6.04359" y1="6.24375" x2="42.1319" y2="44.2674" gradientUnits="userSpaceOnUse">
<stop stop-color="#1F8ADB"/>
<stop offset="1" stop-color="#F52A8C"/>
</linearGradient>
<clipPath id="clip0_68_184">
<rect width="50" height="50" fill="white"/>
</clipPath>
</defs>
</svg>
