<svg width="50" height="50" viewBox="0 0 50 50" fill="none" xmlns="http://www.w3.org/2000/svg">
<g clip-path="url(#clip0_68_200)">
<path d="M45 2.77778C46.2222 2.77778 47.2222 3.77778 47.2222 5V45C47.2222 46.2222 46.2222 47.2222 45 47.2222H5C3.77778 47.2222 2.77778 46.2222 2.77778 45V5C2.77778 3.77778 3.77778 2.77778 5 2.77778H45ZM45 0H5C2.25 0 0 2.25 0 5V45C0 47.75 2.25 50 5 50H45C47.75 50 50 47.75 50 45V5C50 2.25 47.75 0 45 0Z" fill="url(#paint0_linear_68_200)"/>
<path d="M33.8333 11.1111H16.1667C12.6944 11.1111 9.86111 13.9444 9.86111 17.4166V32.5555C9.86111 36.0278 12.6944 38.8611 16.1667 38.8611H33.8333C37.3056 38.8611 40.1389 36.0278 40.1389 32.5555V17.4166C40.1389 13.9444 37.3333 11.1111 33.8333 11.1111ZM16.1667 13.6389H33.8333C35.9167 13.6389 37.6111 15.3333 37.6111 17.4166V18.6666H12.3611V17.4166C12.3611 15.3333 14.0833 13.6389 16.1667 13.6389ZM33.8333 36.3611H16.1667C14.0833 36.3611 12.3889 34.6666 12.3889 32.5833V21.2222H37.6389V32.5833C37.6389 34.6666 35.9167 36.3611 33.8333 36.3611ZM33.8333 26.25C33.8333 26.9444 33.2778 27.5 32.5833 27.5H17.4167C16.7222 27.5 16.1667 26.9444 16.1667 26.25C16.1667 25.5555 16.7222 25 17.4167 25H32.5556C33.2778 25 33.8333 25.5555 33.8333 26.25ZM28.7778 31.3055C28.7778 32 28.2222 32.5555 27.5278 32.5555H17.4167C16.7222 32.5555 16.1667 32 16.1667 31.3055C16.1667 30.6111 16.7222 30.0555 17.4167 30.0555H27.5278C28.2222 30.0555 28.7778 30.6111 28.7778 31.3055ZM13.6389 16.1666C13.6389 15.4722 14.1944 14.9166 14.8889 14.9166C15.5833 14.9166 16.1389 15.4722 16.1389 16.1666C16.1389 16.8611 15.5833 17.4166 14.8889 17.4166C14.1944 17.4166 13.6389 16.8611 13.6389 16.1666ZM17.4167 16.1666C17.4167 15.4722 17.9722 14.9166 18.6667 14.9166C19.3611 14.9166 19.9167 15.4722 19.9167 16.1666C19.9167 16.8611 19.3611 17.4166 18.6667 17.4166C17.9722 17.4166 17.4167 16.8611 17.4167 16.1666ZM21.2222 16.1666C21.2222 15.4722 21.7778 14.9166 22.4722 14.9166C23.1667 14.9166 23.7222 15.4722 23.7222 16.1666C23.7222 16.8611 23.1667 17.4166 22.4722 17.4166C21.7778 17.4166 21.2222 16.8611 21.2222 16.1666Z" fill="url(#paint1_linear_68_200)"/>
</g>
<defs>
<linearGradient id="paint0_linear_68_200" x1="5.74144" y1="5.67881" x2="43.7044" y2="43.7652" gradientUnits="userSpaceOnUse">
<stop stop-color="#1F8ADB"/>
<stop offset="1" stop-color="#F52A8C"/>
</linearGradient>
<linearGradient id="paint1_linear_68_200" x1="5.74145" y1="5.67878" x2="43.7044" y2="43.7652" gradientUnits="userSpaceOnUse">
<stop stop-color="#1F8ADB"/>
<stop offset="1" stop-color="#F52A8C"/>
</linearGradient>
<clipPath id="clip0_68_200">
<rect width="50" height="50" fill="white"/>
</clipPath>
</defs>
</svg>
