<svg width="50" height="50" viewBox="0 0 50 50" fill="none" xmlns="http://www.w3.org/2000/svg">
<g clip-path="url(#clip0_68_215)">
<path d="M45 2.77778C46.2222 2.77778 47.2222 3.77778 47.2222 5V45C47.2222 46.2222 46.2222 47.2222 45 47.2222H5C3.77778 47.2222 2.77778 46.2222 2.77778 45V5C2.77778 3.77778 3.77778 2.77778 5 2.77778H45ZM45 0H5C2.25 0 0 2.25 0 5V45C0 47.75 2.25 50 5 50H45C47.75 50 50 47.75 50 45V5C50 2.25 47.75 0 45 0Z" fill="url(#paint0_linear_68_215)"/>
<path d="M28.4722 38.8889H21.5278C18.3333 38.8889 15.75 36.3055 15.75 33.1111V16.8889C15.75 13.6944 18.3333 11.1111 21.5278 11.1111H28.4722C31.6667 11.1111 34.25 13.6944 34.25 16.8889V33.0833C34.25 36.3055 31.6667 38.8889 28.4722 38.8889ZM21.5278 13.4166C19.6111 13.4166 18.0556 14.9722 18.0556 16.8889V33.0833C18.0556 35 19.6111 36.5555 21.5278 36.5555H28.4722C30.3889 36.5555 31.9444 35 31.9444 33.0833V16.8889C31.9444 14.9722 30.3889 13.4166 28.4722 13.4166H21.5278ZM27.3056 33.1111C27.3056 32.4722 26.7778 31.9444 26.1389 31.9444H23.8333C23.1944 31.9444 22.6667 32.4722 22.6667 33.1111C22.6667 33.75 23.1944 34.2778 23.8333 34.2778H26.1389C26.8056 34.25 27.3056 33.75 27.3056 33.1111Z" fill="url(#paint1_linear_68_215)"/>
</g>
<defs>
<linearGradient id="paint0_linear_68_215" x1="5.67433" y1="6.43344" x2="43.3904" y2="42.668" gradientUnits="userSpaceOnUse">
<stop stop-color="#1F8ADB"/>
<stop offset="1" stop-color="#F52A8C"/>
</linearGradient>
<linearGradient id="paint1_linear_68_215" x1="5.67433" y1="6.43342" x2="43.3904" y2="42.668" gradientUnits="userSpaceOnUse">
<stop stop-color="#1F8ADB"/>
<stop offset="1" stop-color="#F52A8C"/>
</linearGradient>
<clipPath id="clip0_68_215">
<rect width="50" height="50" fill="white"/>
</clipPath>
</defs>
</svg>
