<svg width="50" height="50" viewBox="0 0 50 50" fill="none" xmlns="http://www.w3.org/2000/svg">
<g clip-path="url(#clip0_68_196)">
<path d="M45 2.77778C46.2222 2.77778 47.2222 3.77778 47.2222 5V45C47.2222 46.2222 46.2222 47.2222 45 47.2222H5C3.77778 47.2222 2.77778 46.2222 2.77778 45V5C2.77778 3.77778 3.77778 2.77778 5 2.77778H45ZM45 0H5C2.25 0 0 2.25 0 5V45C0 47.75 2.25 50 5 50H45C47.75 50 50 47.75 50 45V5C50 2.25 47.75 0 45 0Z" fill="url(#paint0_linear_68_196)"/>
<path d="M28.4722 18.0555C29.1111 18.0555 29.6389 18.5833 29.6389 19.2222C29.6389 19.8611 29.1111 20.3889 28.4722 20.3889H19.2222C18.5833 20.3889 18.0555 19.8611 18.0555 19.2222C18.0555 18.5833 18.5833 18.0555 19.2222 18.0555H28.4722ZM37.3889 38.5555C36.9444 39 36.1944 39 35.75 38.5555L32.9722 35.7778C32.1389 36.3055 31.1944 36.5833 30.2222 36.5833C27.3333 36.5833 25 34.25 25 31.3611C25 28.4722 27.3333 26.1389 30.2222 26.1389C33.1111 26.1389 35.4444 28.4722 35.4444 31.3611C35.4444 32.3333 35.1667 33.3055 34.6389 34.1111L37.4167 36.8889C37.8333 37.3611 37.8333 38.1111 37.3889 38.5555ZM30.2222 34.25C31.8333 34.25 33.1111 32.9444 33.1111 31.3611C33.1111 29.7778 31.8055 28.4722 30.2222 28.4722C28.6389 28.4722 27.3333 29.7778 27.3333 31.3611C27.3333 32.9444 28.6111 34.25 30.2222 34.25ZM25 36.5833H18.0555C16.1389 36.5833 14.5833 35.0277 14.5833 33.1111V16.8889C14.5833 14.9722 16.1389 13.4166 18.0555 13.4166H31.9444C32.5833 13.4166 33.1111 13.9444 33.1111 14.5833V23.8333C33.1111 24.4722 33.6389 25 34.2778 25C34.9167 25 35.4444 24.4722 35.4444 23.8333V14.5833C35.4444 12.6666 33.8889 11.1111 31.9722 11.1111H18.0555C14.8611 11.1111 12.2778 13.6944 12.2778 16.8889V33.0833C12.2778 36.2777 14.8611 38.8611 18.0555 38.8611H25C25.6389 38.8611 26.1667 38.3333 26.1667 37.6944C26.1667 37.0833 25.6389 36.5833 25 36.5833Z" fill="url(#paint1_linear_68_196)"/>
</g>
<defs>
<linearGradient id="paint0_linear_68_196" x1="7.67072" y1="6.34497" x2="41.5596" y2="42.8265" gradientUnits="userSpaceOnUse">
<stop stop-color="#1F8ADB"/>
<stop offset="1" stop-color="#F52A8C"/>
</linearGradient>
<linearGradient id="paint1_linear_68_196" x1="7.40097" y1="6.59553" x2="41.2899" y2="43.077" gradientUnits="userSpaceOnUse">
<stop stop-color="#1F8ADB"/>
<stop offset="1" stop-color="#F52A8C"/>
</linearGradient>
<clipPath id="clip0_68_196">
<rect width="50" height="50" fill="white"/>
</clipPath>
</defs>
</svg>
